<svg id="Capa_1" enable-background="new 0 0 511.5 511.5" height="512" viewBox="0 0 511.5 511.5" width="512" xmlns="http://www.w3.org/2000/svg"><g><path d="m319.096 126.5v15h62.654c23.435 0 42.5 19.066 42.5 42.501 0 .553-.011 1.109-.031 1.663-.838 22.044-18.762 39.968-40.807 40.805-21.624.842-39.853-14.574-43.499-34.968h21.837v-15h-37.5v7.5c0 31.705 25.794 57.5 57.5 57.5.741 0 1.486-.014 2.232-.042 29.834-1.133 54.092-25.39 55.226-55.229.027-.745.042-1.488.042-2.228 0-31.706-25.794-57.501-57.5-57.501h-62.654z"/><path d="m127.516 241.458c.748.028 1.493.042 2.234.042 31.706 0 57.5-25.794 57.5-57.5v-7.5h-37.5v15h21.837c-3.553 19.87-20.961 35-41.837 35-.552 0-1.105-.01-1.664-.032-22.043-.837-39.967-18.761-40.804-40.801-.021-.558-.032-1.114-.032-1.667 0-23.435 19.065-42.5 42.5-42.5h174.346v-15h-174.346c-31.706 0-57.5 25.794-57.5 57.5 0 .74.015 1.482.043 2.232 1.133 29.835 25.391 54.093 55.223 55.226z"/><path d="m185.75 16.747h15v50h-15z" transform="matrix(.866 -.5 .5 .866 5.017 102.218)"/><path d="m139.997 62.5h15v50h-15z" transform="matrix(.5 -.866 .866 .5 -2.029 171.487)"/><path d="m339.003 80h50v15h-50z" transform="matrix(.866 -.5 .5 .866 5.018 193.726)"/><path d="m293.25 34.247h50v15h-50z" transform="matrix(.5 -.866 .866 .5 122.97 296.485)"/><path d="m498.25 466.5v-49.104l-87.409-11.158-1.9 14.879 74.309 9.487v35.896h-141.5v15h154.5v15h-372.5v15h387.5v-45z"/><path d="m15.25 481.5h311.5v-15h-63.5v-15.711c0-23.438 19.023-42.507 42.407-42.507 1.813 0 3.655.118 5.475.35l82.931 10.587 1.9-14.879-2.713-.346v-147.994h-15v146.078l-21-2.681v-119.397c0-15.164-12.337-27.5-27.5-27.5s-27.5 12.336-27.5 27.5v113.388c-6.704.396-13.104 1.944-19 4.458v-117.846c0-15.164-12.337-27.5-27.5-27.5s-27.5 12.336-27.5 27.5v117.846c-5.896-2.514-12.296-4.063-19-4.458v-113.388c0-15.164-12.337-27.5-27.5-27.5s-27.5 12.336-27.5 27.5v119.397l-21 2.681v-146.078h-15v147.992l-105 13.404v49.104h-13v45h108.5v-15h-93.5v-15zm302-201.5c0-6.893 5.607-12.5 12.5-12.5s12.5 5.607 12.5 12.5v117.482l-25-3.192zm-74 0c0-6.893 5.607-12.5 12.5-12.5s12.5 5.607 12.5 12.5v127.21c-4.98 4.296-9.224 9.427-12.5 15.181-3.276-5.754-7.52-10.885-12.5-15.181zm-74 0c0-6.893 5.607-12.5 12.5-12.5s12.5 5.607 12.5 12.5v114.291l-25 3.191zm-141 150.604 172.117-21.973c1.819-.232 3.661-.35 5.475-.35 23.384 0 42.408 19.069 42.408 42.507v15.712h-220z"/><path d="m248.25 0h15v50h-15z"/><path d="m278.25 176.5h15v15h-15z"/><path d="m218.25 176.5h15v15h-15z"/><path d="m248.25 176.5h15v15h-15z"/><path d="m378.75 176.5h15v15h-15z"/><path d="m117.75 176.5h15v15h-15z"/></g></svg>