<?xml version="1.0" encoding="UTF-8" standalone="no"?>
<!-- Created with Inkscape (http://www.inkscape.org/) -->

<svg
   version="1.1"
   id="svg9"
   xml:space="preserve"
   width="682.66669"
   height="682.66669"
   viewBox="0 0 682.66669 682.66669"
   xmlns="http://www.w3.org/2000/svg"
   xmlns:svg="http://www.w3.org/2000/svg"><defs
     id="defs13"><clipPath
       clipPathUnits="userSpaceOnUse"
       id="clipPath27"><path
         d="M 0,512 H 512 V 0 H 0 Z"
         id="path25" /></clipPath></defs><g
     id="g15"
     transform="matrix(1.3333333,0,0,-1.3333333,0,682.66667)"><g
       id="g17"
       transform="translate(429.9482,429.9482)"><path
         d="M 0,0 -0.004,-0.004"
         style="fill:none;stroke:#000000;stroke-width:20;stroke-linecap:round;stroke-linejoin:round;stroke-miterlimit:10;stroke-dasharray:none;stroke-opacity:1"
         id="path19" /></g><g
       id="g21"><g
         id="g23"
         clip-path="url(#clipPath27)"><g
           id="g29"
           transform="translate(458.9473,395.0952)"><path
             d="m 0,0 c 2.524,-3.677 4.938,-7.407 7.24,-11.187 l 0.008,-0.007 -20.648,-77.131 -94.767,-25.385 -69.395,69.396 25.378,94.773 77.11,20.655 c 3.748,-2.281 7.448,-4.673 11.095,-7.174"
             style="fill:none;stroke:#000000;stroke-width:20;stroke-linecap:round;stroke-linejoin:round;stroke-miterlimit:10;stroke-dasharray:none;stroke-opacity:1"
             id="path31" /></g><g
           id="g33"
           transform="translate(471.8516,137.8706)"><path
             d="m 0,0 -77.068,-20.654 -69.374,69.374 25.371,94.795 94.766,25.384 56.392,-56.391 C 29.204,73.667 19.169,34.995 0,0 Z"
             style="fill:none;stroke:#000000;stroke-width:20;stroke-linecap:round;stroke-linejoin:round;stroke-miterlimit:10;stroke-dasharray:none;stroke-opacity:1"
             id="path35" /></g><g
           id="g37"
           transform="translate(374.1294,40.1484)"><path
             d="m 0,0 c -34.995,-19.169 -73.667,-29.204 -112.508,-30.087 l -56.37,56.37 25.363,94.788 94.774,25.392 69.395,-69.395 z"
             style="fill:none;stroke:#000000;stroke-width:20;stroke-linecap:round;stroke-linejoin:round;stroke-miterlimit:10;stroke-dasharray:none;stroke-opacity:1"
             id="path39" /></g><g
           id="g41"
           transform="translate(205.23,66.4531)"><path
             d="m 0,0 -77.103,-20.662 -0.007,0.007 c -16.405,9.985 -31.884,22.069 -46.068,36.254 -14.178,14.177 -26.255,29.649 -36.239,46.039 l -0.008,0.008 20.648,77.131 94.766,25.385 69.396,-69.396 z"
             style="fill:none;stroke:#000000;stroke-width:20;stroke-linecap:round;stroke-linejoin:round;stroke-miterlimit:10;stroke-dasharray:none;stroke-opacity:1"
             id="path43" /></g><g
           id="g45"
           transform="translate(161.2192,230.6147)"><path
             d="m 0,0 -94.766,-25.385 -56.392,56.392 c 0.884,38.841 10.918,77.513 30.087,112.508 l 77.068,20.654 69.374,-69.374 z"
             style="fill:none;stroke:#000000;stroke-width:20;stroke-linecap:round;stroke-linejoin:round;stroke-miterlimit:10;stroke-dasharray:none;stroke-opacity:1"
             id="path47" /></g><g
           id="g49"
           transform="translate(281.3853,350.7808)"><path
             d="m 0,0 -94.773,-25.393 -69.396,69.396 20.654,77.068 c 34.995,19.169 73.667,29.203 112.508,30.087 L 25.378,94.773 Z"
             style="fill:none;stroke:#000000;stroke-width:20;stroke-linecap:round;stroke-linejoin:round;stroke-miterlimit:10;stroke-dasharray:none;stroke-opacity:1"
             id="path51" /></g><g
           id="g53"
           transform="translate(250.3784,501.939)"><path
             d="M 0,0 C 46.23,1.046 92.702,-10.861 133.495,-35.73"
             style="fill:none;stroke:#000000;stroke-width:20;stroke-linecap:round;stroke-linejoin:round;stroke-miterlimit:10;stroke-dasharray:none;stroke-opacity:1"
             id="path55" /></g><g
           id="g57"
           transform="translate(40.1484,374.1294)"><path
             d="M 0,0 C 10.967,20.032 24.94,38.855 41.903,55.819 58.867,72.782 77.69,86.755 97.722,97.722"
             style="fill:none;stroke:#000000;stroke-width:20;stroke-linecap:round;stroke-linejoin:round;stroke-miterlimit:10;stroke-dasharray:none;stroke-opacity:1"
             id="path59" /></g><g
           id="g61"
           transform="translate(45.8125,128.0913)"><path
             d="m 0,0 -0.007,0.007 c -24.876,40.8 -36.791,87.279 -35.744,133.523"
             style="fill:none;stroke:#000000;stroke-width:20;stroke-linecap:round;stroke-linejoin:round;stroke-miterlimit:10;stroke-dasharray:none;stroke-opacity:1"
             id="path63" /></g><g
           id="g65"
           transform="translate(261.6216,10.061)"><path
             d="m 0,0 c -46.231,-1.046 -92.695,10.854 -133.495,35.73 l -0.007,0.007"
             style="fill:none;stroke:#000000;stroke-width:20;stroke-linecap:round;stroke-linejoin:round;stroke-miterlimit:10;stroke-dasharray:none;stroke-opacity:1"
             id="path67" /></g><g
           id="g69"
           transform="translate(471.8516,137.8706)"><path
             d="M 0,0 C -10.967,-20.032 -24.94,-38.855 -41.903,-55.819 -58.867,-72.782 -77.69,-86.755 -97.722,-97.722"
             style="fill:none;stroke:#000000;stroke-width:20;stroke-linecap:round;stroke-linejoin:round;stroke-miterlimit:10;stroke-dasharray:none;stroke-opacity:1"
             id="path71" /></g><g
           id="g73"
           transform="translate(466.1875,383.9087)"><path
             d="m 0,0 0.007,-0.007 c 24.876,-40.8 36.791,-87.278 35.744,-133.523"
             style="fill:none;stroke:#000000;stroke-width:20;stroke-linecap:round;stroke-linejoin:round;stroke-miterlimit:10;stroke-dasharray:none;stroke-opacity:1"
             id="path75" /></g></g></g></g></svg>
