<svg clip-rule="evenodd" fill-rule="evenodd" height="512" image-rendering="optimizeQuality" shape-rendering="geometricPrecision" text-rendering="geometricPrecision" viewBox="0 0 1706.66 1706.66" width="512" xmlns="http://www.w3.org/2000/svg" xmlns:xodm="http://www.corel.com/coreldraw/odm/2003"><g id="Layer_x0020_1"><path d="m1336.12 1041.94h-217.71c-26.33 0-26.32-40 0-40h217.71c26.32 0 26.32 40 0 40z"/><path d="m1336.12 884.16h-174.15c-26.33 0-26.33-40 0-40h174.15c26.33 0 26.32 40 0 40z"/><path d="m1336.12 726.33h-174.15c-26.33 0-26.32-40 0-40h174.15c26.33 0 26.33 40 0 40z"/><path d="m962.87 1021.35h-219.07c-59.83 0-108.51-48.68-108.51-108.51 0-360.58-161.53-279.27-161.53-533.28 0-209.29 170.28-379.56 379.57-379.56s379.56 170.28 379.56 379.56c0 253.96-161.55 172.76-161.52 533.28.01 59.83-48.67 108.51-108.5 108.51zm-109.54-981.35c-187.23 0-339.57 152.33-339.57 339.56 0 233.37 161.53 161.47 161.53 533.25 0 37.78 30.73 68.5 68.51 68.5h219.07c37.78 0 68.51-30.72 68.51-68.5 0-371.74 161.53-299.88 161.52-533.25-.02-187.24-152.34-339.57-339.57-339.57z"/><path d="m1054.73 848.11h-402.79c-26.33 0-26.33-40 0-40h402.79c26.33 0 26.33 40 0 40z"/><path d="m859.98 1135.31h-13.29c-59.83 0-108.51-48.68-108.51-108.51 0-17.22-4.41-45.44 20-45.44h190.29c24.42 0 20 28.24 20 45.44.02 59.83-48.67 108.51-108.49 108.51zm-81.8-113.96c0 99.46 150.3 99.49 150.3 0z"/><path d="m1051.39 934.73h-395.97c-26.33 0-26.33-40 0-40h395.97c26.33 0 26.33 40 0 40z"/><path d="m892.41 646.14c-112.89 0-113 9.32-113-75.65-3.87-1.47-7.72-3.07-11.51-4.78-60.01 60.01-54.23 52.79-133.42-26.4-29.72-29.72 9.18-58.46 28.86-78.14-1.71-3.79-3.31-7.63-4.78-11.51-84.96 0-75.64-.11-75.64-113 0-42.02 47.83-34.83 75.64-34.83 1.47-3.89 3.07-7.74 4.78-11.52-60.07-60.07-53.46-53.46 26.42-133.39 29.65-29.67 59.63 10.37 78.14 28.88 3.79-1.71 7.63-3.31 11.51-4.78 0-84.96.1-75.65 113.02-75.66 42.02 0 34.84 47.83 34.84 75.65 3.86 1.47 7.7 3.07 11.5 4.78 60.03-60.06 54.22-52.75 133.41 26.39 29.71 29.69-9.19 58.43-28.88 78.13 1.7 3.79 3.29 7.63 4.78 11.51 85 0 75.67.12 75.67 113 0 42.02-47.85 34.83-75.66 34.83-1.47 3.87-3.07 7.72-4.78 11.51 59.97 59.97 53.63 53.42-26.41 133.41-29.69 29.67-59.66-10.38-78.13-28.86-3.79 1.7-7.64 3.31-11.51 4.78 0 27.83 7.17 75.66-34.85 75.66zm-73-40h67.85c0-85.28-4.31-55.11 46-82.3 18.8-10.16 35.79 15.57 59.02 38.81l47.97-47.98c-60.1-60.11-42.17-35.53-25.65-90.74 6.11-20.45 36.37-14.27 69.15-14.28v-67.83c-85.32 0-55.1 4.29-82.3-45.98-10.17-18.8 15.63-35.85 38.8-59.03l-47.97-47.97c-60.13 60.13-35.51 42.15-90.73 25.65-20.46-6.11-14.28-36.35-14.28-69.15h-67.85c0 85.38 4.27 55.09-46.01 82.3-18.78 10.17-35.77-15.57-59.02-38.81l-47.97 47.97c60.13 60.13 42.15 35.52 25.65 90.74-6.12 20.46-36.33 14.28-69.14 14.28v67.85c85.32 0 55.1-4.29 82.3 46 10.17 18.8-15.63 35.84-38.81 59.02l47.98 47.97c60.18-60.18 35.54-42.14 90.73-25.65 20.46 6.11 14.28 36.35 14.28 69.14z"/><path d="m853.33 517.69c-78.28 0-141.96-63.68-141.96-141.96s63.68-141.96 141.96-141.96 141.97 63.68 141.97 141.96c0 78.29-63.7 141.96-141.97 141.96zm0-243.91c-56.22 0-101.96 45.74-101.96 101.96s45.74 101.96 101.96 101.96 101.96-45.74 101.96-101.96-45.74-101.96-101.96-101.96z"/><path d="m588.26 1041.94h-217.7c-26.32 0-26.32-40 0-40h217.7c26.32 0 26.33 40 0 40z"/><path d="m544.71 884.16h-174.15c-26.32 0-26.33-40 0-40h174.15c26.33 0 26.34 40 0 40z"/><path d="m544.71 726.33h-174.15c-26.33 0-26.33-40 0-40h174.15c26.32 0 26.34 40 0 40z"/><path d="m853.33 1706.66c-4.69 0-9.37-1.65-13.15-4.93-201.23-175.57-769.49-74.94-775.22-73.89-12.25 2.22-23.57-7.25-23.57-19.69v-984.62c0-11.04 8.96-20 20-20h135.23c26.33 0 26.33 40 0 40h-115.23v940.98c110.82-17.63 570.73-79 771.93 76.28 201.22-155.26 661.16-93.87 771.93-76.29v-940.97h-115.23c-26.33 0-26.32-40 0-40h135.23c11.04 0 20 8.96 20 20v984.63c0 12.49-11.38 21.92-23.59 19.69-5.72-1.04-574.09-101.55-775.22 73.89-3.73 3.27-8.43 4.92-13.12 4.92z"/><path d="m853.33 1557.74c-3.89 0-7.78-1.14-11.15-3.4-221.43-148.78-640.04-122.5-644.2-122.25-11.55.63-21.35-8.31-21.35-19.96v-979.68c0-10.85 8.64-19.71 19.47-19.98 104.37-2.72 207.68 4.06 306.89 20.19 25.97 4.23 19.59 43.69-6.43 39.49-90.58-14.75-184.7-21.43-279.94-20.09v939.04c89.17-3.61 429.65-8.02 636.7 122.78 207.05-130.78 547.46-126.47 636.7-122.78v-939.08c-95.18-1.29-189.33 5.35-279.93 20.08-25.95 4.2-32.43-35.25-6.43-39.49 99.23-16.14 202.37-22.94 306.9-20.2 10.83.3 19.47 9.16 19.47 19.98v979.69c0 11.62-9.82 20.59-21.35 19.96-4.18-.26-422.93-26.42-644.21 122.25-3.34 2.28-7.24 3.43-11.13 3.43z"/><path d="m853.33 1449.91c-11.04 0-20-8.97-20-20v-231.36c0-26.33 40-26.32 40 0v231.36c0 11.04-8.96 20-20 20z"/><path d="m853.33 1706.66c-11.04 0-20-8.97-20-20v-148.93c0-26.33 40-26.32 40 0v148.93c0 11.04-8.96 20-20 20z"/><path d="m1336.12 1175.59h-309.54c-26.33 0-26.32-40 0-40h309.54c26.32 0 26.32 40 0 40z"/><path d="m1336.12 1304.25h-309.54c-26.33 0-26.32-40 0-40h309.54c26.32 0 26.32 40 0 40z"/><path d="m680.1 1175.59h-309.54c-26.32 0-26.32-40 0-40h309.54c26.33 0 26.33 40 0 40z"/><path d="m680.1 1304.25h-309.54c-26.32 0-26.32-40 0-40h309.54c26.33 0 26.33 40 0 40z"/></g></svg>