<svg version="1.1" id="Layer_1" xmlns="http://www.w3.org/2000/svg" xmlns:xlink="http://www.w3.org/1999/xlink" x="0px" y="0px" viewBox="0 0 512 512" style="enable-background:new 0 0 512 512;" xml:space="preserve">
<g>
	<path style="fill:none;stroke:#000000;stroke-width:20;stroke-linecap:round;stroke-linejoin:round;stroke-miterlimit:10;" d="&#10;&#9;&#9;M79.917,502c-5.611,0-10.159-4.548-10.159-10.159v-20.848c0-15.455,12.529-27.983,27.983-27.983h41.104&#10;&#9;&#9;c15.455,0,27.983,12.529,27.983,27.983v20.848c0,5.611-4.548,10.159-10.159,10.159H79.917z"/>
	
		<circle style="fill:none;stroke:#000000;stroke-width:20;stroke-linecap:round;stroke-linejoin:round;stroke-miterlimit:10;" cx="118.293" cy="409.981" r="33.029"/>
	<path style="fill:none;stroke:#000000;stroke-width:20;stroke-linecap:round;stroke-linejoin:round;stroke-miterlimit:10;" d="&#10;&#9;&#9;M294.376,502h-76.752c-5.611,0-10.159-4.548-10.159-10.159v-20.848c0-15.455,12.529-27.983,27.983-27.983h41.104&#10;&#9;&#9;c15.455,0,27.983,12.529,27.983,27.983v20.848C304.535,497.452,299.987,502,294.376,502z"/>
	
		<circle style="fill:none;stroke:#000000;stroke-width:20;stroke-linecap:round;stroke-linejoin:round;stroke-miterlimit:10;" cx="256" cy="409.981" r="33.029"/>
	
		<line style="fill:none;stroke:#000000;stroke-width:20;stroke-linecap:round;stroke-linejoin:round;stroke-miterlimit:10;" x1="222.358" y1="404.725" x2="151.939" y2="404.725"/>
	<path style="fill:none;stroke:#000000;stroke-width:20;stroke-linecap:round;stroke-linejoin:round;stroke-miterlimit:10;" d="&#10;&#9;&#9;M137.729,382.227v-8.516c0-15.455,12.53-27.985,27.985-27.985h41.106c15.455,0,27.975,12.53,27.975,27.985v9.906"/>
	
		<circle style="fill:none;stroke:#000000;stroke-width:20;stroke-linecap:round;stroke-linejoin:round;stroke-miterlimit:10;" cx="186.264" cy="312.702" r="33.029"/>
	
		<line style="fill:none;stroke:#000000;stroke-width:20;stroke-linecap:round;stroke-linejoin:round;stroke-miterlimit:10;" x1="360.063" y1="404.725" x2="289.644" y2="404.725"/>
	<path style="fill:none;stroke:#000000;stroke-width:20;stroke-linecap:round;stroke-linejoin:round;stroke-miterlimit:10;" d="&#10;&#9;&#9;M276.388,382.953v-9.242c0-15.455,12.53-27.985,27.985-27.985h41.096c15.455,0,27.985,12.53,27.985,27.985v9.138"/>
	
		<circle style="fill:none;stroke:#000000;stroke-width:20;stroke-linecap:round;stroke-linejoin:round;stroke-miterlimit:10;" cx="324.921" cy="312.702" r="33.029"/>
	<path style="fill:none;stroke:#000000;stroke-width:20;stroke-linecap:round;stroke-linejoin:round;stroke-miterlimit:10;" d="&#10;&#9;&#9;M432.083,502h-76.752c-5.611,0-10.159-4.548-10.159-10.159v-20.848c0-15.455,12.529-27.983,27.983-27.983h41.104&#10;&#9;&#9;c15.455,0,27.983,12.529,27.983,27.983v20.848C442.242,497.452,437.694,502,432.083,502z"/>
	
		<circle style="fill:none;stroke:#000000;stroke-width:20;stroke-linecap:round;stroke-linejoin:round;stroke-miterlimit:10;" cx="393.707" cy="409.981" r="33.029"/>
	<path style="fill:none;stroke:#000000;stroke-width:20;stroke-linecap:round;stroke-linejoin:round;stroke-miterlimit:10;" d="&#10;&#9;&#9;M372.576,366.731c49.124-35.91,81.02-93.913,81.02-159.363C453.596,98.363,365.129,10,256,10S58.404,98.363,58.404,207.368&#10;&#9;&#9;c0,65.15,31.605,122.924,80.345,158.865"/>
	
		<line style="fill:none;stroke:#000000;stroke-width:20;stroke-linecap:round;stroke-linejoin:round;stroke-miterlimit:10;" x1="301.642" y1="207.363" x2="446.308" y2="207.363"/>
	
		<line style="fill:none;stroke:#000000;stroke-width:20;stroke-linecap:round;stroke-linejoin:round;stroke-miterlimit:10;" x1="66.992" y1="207.363" x2="210.522" y2="207.363"/>
	<path style="fill:none;stroke:#000000;stroke-width:20;stroke-linecap:round;stroke-linejoin:round;stroke-miterlimit:10;" d="&#10;&#9;&#9;M177.999,280.712c-2.842-22.239-4.647-46.801-4.647-73.344c0-86.901,19.365-152.517,30.993-185.356"/>
	<path style="fill:none;stroke:#000000;stroke-width:20;stroke-linecap:round;stroke-linejoin:round;stroke-miterlimit:10;" d="&#10;&#9;&#9;M308.526,22.011c11.628,32.839,31.003,98.456,31.003,185.356c0,26.73-1.836,51.448-4.709,73.811"/>
	<path style="fill:none;stroke:#000000;stroke-width:20;stroke-linecap:round;stroke-linejoin:round;stroke-miterlimit:10;" d="&#10;&#9;&#9;M98.126,91.692c35.415,13.217,90.137,28.376,158.316,28.376c67.749,0,122.196-14.953,157.627-28.101"/>
	<path style="fill:none;stroke:#000000;stroke-width:20;stroke-linecap:round;stroke-linejoin:round;stroke-miterlimit:10;" d="&#10;&#9;&#9;M357.246,305.896c22.249,5.031,41.345,11.119,56.82,16.855"/>
	<path style="fill:none;stroke:#000000;stroke-width:20;stroke-linecap:round;stroke-linejoin:round;stroke-miterlimit:10;" d="&#10;&#9;&#9;M215.06,296.53c13.152-1.203,26.968-1.877,41.386-1.877c13.827,0,27.093,0.622,39.758,1.722"/>
	<path style="fill:none;stroke:#000000;stroke-width:20;stroke-linecap:round;stroke-linejoin:round;stroke-miterlimit:10;" d="&#10;&#9;&#9;M153.862,306.311c-21.824,5.031-40.556,11.057-55.731,16.72"/>
	
		<line style="fill:none;stroke:#000000;stroke-width:20;stroke-linecap:round;stroke-linejoin:round;stroke-miterlimit:10;" x1="256" y1="207.363" x2="256" y2="207.363"/>
</g>
<g>
</g>
<g>
</g>
<g>
</g>
<g>
</g>
<g>
</g>
<g>
</g>
<g>
</g>
<g>
</g>
<g>
</g>
<g>
</g>
<g>
</g>
<g>
</g>
<g>
</g>
<g>
</g>
<g>
</g>
</svg>