<svg height="511pt" viewBox="-27 0 511 511.996" width="511pt" xmlns="http://www.w3.org/2000/svg"><path d="m120.496094 166c-22.054688 0-40 17.945312-40 40s17.945312 40 40 40c22.058594 0 40-17.945312 40-40s-17.941406-40-40-40zm0 60c-11.027344 0-20-8.972656-20-20s8.972656-20 20-20c11.03125 0 20 8.972656 20 20s-8.96875 20-20 20zm0 0"/><path d="m270.496094 156c0-22.054688-17.941406-40-40-40-22.054688 0-40 17.945312-40 40s17.945312 40 40 40c22.058594 0 40-17.945312 40-40zm-60 0c0-11.027344 8.972656-20 20-20 11.03125 0 20 8.972656 20 20s-8.96875 20-20 20c-11.027344 0-20-8.972656-20-20zm0 0"/><path d="m50.496094 326c0 22.054688 17.945312 40 40 40 22.058594 0 40-17.945312 40-40s-17.941406-40-40-40c-22.054688 0-40 17.945312-40 40zm40-20c11.03125 0 20 8.972656 20 20s-8.96875 20-20 20c-11.027344 0-20-8.972656-20-20s8.972656-20 20-20zm0 0"/><path d="m140.496094 406c0 22.054688 17.945312 40 40 40 22.058594 0 40-17.945312 40-40s-17.941406-40-40-40c-22.054688 0-40 17.945312-40 40zm60 0c0 11.027344-8.96875 20-20 20-11.027344 0-20-8.972656-20-20s8.972656-20 20-20c11.03125 0 20 8.972656 20 20zm0 0"/><path d="m410.789062 95.101562c0-23.792968-34.617187-79.53125-41.558593-90.460937-1.835938-2.890625-5.019531-4.640625-8.441407-4.640625-3.425781 0-6.609374 1.75-8.441406 4.640625-6.066406 9.550781-33.25 53.300781-40.027344 80.066406-62.851562-25.820312-128.363281-25.117187-185.890624 2.300781-57.199219 27.261719-103.328126 80.292969-119.671876 147.058594-1.316406 5.367188 1.96875 10.777344 7.332032 12.089844.800781.195312 1.601562.289062 2.386718.289062 4.5 0 8.589844-3.058593 9.707032-7.625 14.207031-58.039062 54.902344-108.046874 108.851562-133.761718 54.550782-25.996094 117.230469-25.484375 177.042969 1.3125 3.136719 13.574218 11.859375 25.230468 23.859375 32.113281-5.886719 21.425781-10.472656 53.945313-13.078125 93.148437-1.058594 15.914063-1.773437 32.808594-2.125 50.300782-37.972656 21.789062-62.980469 63.25-59.847656 112.769531 1.1875 18.710937 2.980469 46.988281-26.480469 72.667969-21.042969 18.347656-52.015625 23.390625-80.824219 13.164062-71.507812-25.378906-123.238281-90.414062-131.796875-165.6875-.621094-5.488281-5.585937-9.425781-11.0625-8.808594-5.488281.625-9.429687 5.578126-8.808594 11.066407 9.601563 84.472656 67.070313 154.625 144.980469 182.277343 35.617188 12.644532 74.183594 6.140626 100.65625-16.9375 36.898438-32.167968 34.554688-69.144531 33.292969-89.011718-2.332031-36.902344 13.75-68.121094 39.652344-87.476563v.039063c0 47.363281 3.628906 140.179687 18.894531 183.457031 2.171875 6.164063 7.949219 22.542969 21.105469 22.542969 13.160156 0 18.9375-16.378906 21.109375-22.542969 15.171875-43.007813 18.890625-135.140625 18.890625-183.457031 0-6.863282-.058594-13.617188-.171875-20.207032 3.085937-.042968 6.214843-.046874 9.382812.003907 18.9375.277343 36.140625-11.246094 42.847657-28.703125 18.378906-47.875-15.78125-95.5625-56.074219-126.976563 9.039062-9.210937 14.308593-21.71875 14.308593-35.011719zm-50-65.929687c14.425782 24.421875 30 54.925781 30 65.929687 0 17.363282-14.425781 30.382813-30.628906 30.019532-16.117187-.363282-29.371094-13.515625-29.371094-30.019532 0-11.003906 15.570313-41.507812 30-65.929687zm0 115.929687c1.765626 0 3.523438-.101562 5.261719-.285156 4.898438 18.3125 8.953125 46.222656 11.480469 79.199219-11.25 1.445313-22.8125 1.417969-34.066406-.074219 2.527344-32.972656 6.589844-60.871094 11.496094-79.183594 1.925781.226563 3.871093.34375 5.828124.34375zm-.292968 343.210938c-16.15625-34.558594-20-138.644531-20-182.3125 0-5.585938.128906-17.886719.132812-17.917969.230469-15.230469.746094-30.019531 1.523438-44.136719 6.164062.765626 12.398437 1.152344 18.636718 1.152344 6.046876 0 12.089844-.363281 18.0625-1.085937.582032 10.652343 1.011719 21.59375 1.28125 32.667969.242188 9.382812.363282 19.246093.363282 29.320312 0 45.03125-4.066406 148.238281-20 182.3125zm73.386718-238.390625c-3.710937 9.65625-13.3125 16.054687-23.863281 15.878906-3.433593-.054687-6.839843-.054687-10.195312-.003906-.386719-11.59375-.949219-23.007813-1.679688-34.046875-.003906-.066406-.015625-.132812-.023437-.199219-2.222656-33.464843-5.894532-62.054687-10.578125-83.015625 40.472656 32.757813 58.128906 70.679688 46.339843 101.386719zm0 0"/><path d="m20.496094 276c0 5.523438-4.476563 10-10 10-5.519532 0-10-4.476562-10-10s4.480468-10 10-10c5.523437 0 10 4.476562 10 10zm0 0"/></svg>