<?xml version="1.0" encoding="UTF-8" standalone="no"?>
<!-- Created with Inkscape (http://www.inkscape.org/) -->

<svg
   version="1.1"
   id="svg1965"
   xml:space="preserve"
   width="682.66669"
   height="682.66669"
   viewBox="0 0 682.66669 682.66669"
   xmlns="http://www.w3.org/2000/svg"
   xmlns:svg="http://www.w3.org/2000/svg"><defs
     id="defs1969"><clipPath
       clipPathUnits="userSpaceOnUse"
       id="clipPath1979"><path
         d="M 0,512 H 512 V 0 H 0 Z"
         id="path1977" /></clipPath></defs><g
     id="g1971"
     transform="matrix(1.3333333,0,0,-1.3333333,0,682.66667)"><g
       id="g1973"><g
         id="g1975"
         clip-path="url(#clipPath1979)"><g
           id="g1981"
           transform="translate(144.2422,476.9043)"><path
             d="m 0,0 c 69.065,40.978 159.642,31.773 219.038,-27.623 70.294,-70.294 70.294,-184.264 0,-254.558 -70.295,-70.295 -184.264,-70.295 -254.559,0 -59.394,59.394 -68.601,149.969 -27.625,219.033"
             style="fill:none;stroke:#000000;stroke-width:20;stroke-linecap:round;stroke-linejoin:round;stroke-miterlimit:2.613;stroke-dasharray:none;stroke-opacity:1"
             id="path1983" /></g><g
           id="g1985"
           transform="translate(363.2803,449.2817)"><path
             d="m 0,0 c -7.811,7.811 -7.811,20.474 0,28.284 7.811,7.811 20.474,7.811 28.284,0 85.912,-85.912 85.912,-225.215 0,-311.127 -85.912,-85.912 -225.215,-85.912 -311.127,0 -7.811,7.811 -7.811,20.474 0,28.284 7.81,7.811 20.474,7.811 28.284,0"
             style="fill:none;stroke:#000000;stroke-width:20;stroke-linecap:round;stroke-linejoin:round;stroke-miterlimit:2.613;stroke-dasharray:none;stroke-opacity:1"
             id="path1987" /></g><g
           id="g1989"
           transform="translate(136,10.001)"><path
             d="M 0,0 H 239.999 V 25 C 239.999,36 231,45 220,45 H 20 C 9,45 0,36 0,25 Z"
             style="fill:none;stroke:#000000;stroke-width:20;stroke-linecap:round;stroke-linejoin:round;stroke-miterlimit:2.613;stroke-dasharray:none;stroke-opacity:1"
             id="path1991" /></g><g
           id="g1993"
           transform="translate(276,55.2549)"><path
             d="M 0,0 V 50.142"
             style="fill:none;stroke:#000000;stroke-width:20;stroke-linecap:round;stroke-linejoin:round;stroke-miterlimit:2.613;stroke-dasharray:none;stroke-opacity:1"
             id="path1995" /></g><g
           id="g1997"
           transform="translate(235.999,55.2549)"><path
             d="M 0,0 V 46.533"
             style="fill:none;stroke:#000000;stroke-width:20;stroke-linecap:round;stroke-linejoin:round;stroke-miterlimit:2.613;stroke-dasharray:none;stroke-opacity:1"
             id="path1999" /></g><g
           id="g2001"
           transform="translate(58.9785,321.7422)"><path
             d="m 0,0 c 19.43,-1.699 35.881,-3.138 55.311,-4.836 13.222,-1.156 18.861,-7.233 21.964,-15.808 2.854,-7.886 5.709,-15.773 8.563,-23.659 3.166,-8.752 10.106,-13.604 18.749,-12.01 4.918,0.908 9.837,1.815 14.755,2.722 11.981,2.211 16.35,5.65 20.829,17.102 2.153,5.505 4.307,11.01 6.459,16.516 3.308,8.457 8.266,12.872 19.447,13.555 10.668,0.651 18.603,1.136 29.271,1.787 12.432,0.759 19.318,-9.472 16.798,-20.714 -3.015,-13.459 -4.804,-21.442 -7.821,-34.9 -2.58,-11.518 -4.955,-15.985 -15.54,-19.923 -6.033,-2.245 -12.066,-4.49 -18.098,-6.734 -7.447,-2.77 -9.682,-11.133 -6.645,-17.297 1.532,-3.11 3.064,-6.219 4.597,-9.329 5.172,-10.497 10.68,-12.254 22.961,-11.18 17.332,1.517 34.664,3.033 51.996,4.549 10.211,0.893 17.2,-0.286 25.435,-8.202 5.339,-5.13 8.952,-8.603 14.291,-13.733"
             style="fill:none;stroke:#000000;stroke-width:20;stroke-linecap:round;stroke-linejoin:round;stroke-miterlimit:2.613;stroke-dasharray:none;stroke-opacity:1"
             id="path2003" /></g><g
           id="g2005"
           transform="translate(235.3872,499.8188)"><path
             d="m 0,0 c -2.987,-10.632 -4.229,-15.048 -7.216,-25.68 -3.749,-13.342 -5.737,-17.729 -16.034,-26.957 -6.153,-5.514 -12.188,-11.168 -18.341,-16.682 -13.775,-13.774 5.025,-32.013 22.779,-33.469 23.168,-1.898 35.557,-2.914 58.725,-4.813 13.19,-1.08 18.193,-0.054 26.31,10.382 6.005,7.721 17.27,10.41 26.824,1.97 13.454,-11.884 16.087,-14.209 29.541,-26.095 11.47,-10.131 17.631,-12.611 27.638,-7.748 6.86,3.333 11.711,5.69 18.571,9.024"
             style="fill:none;stroke:#000000;stroke-width:20;stroke-linecap:round;stroke-linejoin:round;stroke-miterlimit:2.613;stroke-dasharray:none;stroke-opacity:1"
             id="path2007" /></g><g
           id="g2009"
           transform="translate(108.7139,449.2817)"><path
             d="M 0,0 H 0.008"
             style="fill:none;stroke:#000000;stroke-width:20;stroke-linecap:round;stroke-linejoin:round;stroke-miterlimit:2.613;stroke-dasharray:none;stroke-opacity:1"
             id="path2011" /></g></g></g></g></svg>
