<?xml version="1.0" encoding="UTF-8" standalone="no"?>
<!-- Created with Inkscape (http://www.inkscape.org/) -->

<svg
   version="1.1"
   id="svg1167"
   xml:space="preserve"
   width="682.66669"
   height="682.66669"
   viewBox="0 0 682.66669 682.66669"
   xmlns="http://www.w3.org/2000/svg"
   xmlns:svg="http://www.w3.org/2000/svg"><defs
     id="defs1171"><clipPath
       clipPathUnits="userSpaceOnUse"
       id="clipPath1181"><path
         d="M 0,512 H 512 V 0 H 0 Z"
         id="path1179" /></clipPath></defs><g
     id="g1173"
     transform="matrix(1.3333333,0,0,-1.3333333,0,682.66667)"><g
       id="g1175"><g
         id="g1177"
         clip-path="url(#clipPath1181)"><g
           id="g1183"
           transform="translate(134.334,286.1938)"><path
             d="m 0,0 v -29.417 l -120.366,-187.418 c -17.027,-26.51 2.009,-61.358 33.515,-61.358 h 283.325 c 31.506,0 50.542,34.848 33.516,61.358 l -75.566,117.661"
             style="fill:none;stroke:#000000;stroke-width:15;stroke-linecap:round;stroke-linejoin:round;stroke-miterlimit:10;stroke-dasharray:none;stroke-opacity:1"
             id="path1185" /></g><g
           id="g1187"
           transform="translate(271.4863,213.9141)"><path
             d="m 0,0 -27.528,42.863 v 94.608 h -109.624 v -33.229"
             style="fill:none;stroke:#000000;stroke-width:15;stroke-linecap:round;stroke-linejoin:round;stroke-miterlimit:10;stroke-dasharray:none;stroke-opacity:1"
             id="path1189" /></g><g
           id="g1191"
           transform="translate(339.082,53.147)"><path
             d="m 0,0 -88.629,138 c -24.769,-9.002 -51.933,-9.531 -77.168,-1.322 h -0.001 c -13.815,4.494 -28.278,6.377 -42.668,5.649 L -299.872,0 c -2.742,-4.271 -1.399,-8.115 -0.356,-10.027 1.044,-1.912 3.554,-5.119 8.629,-5.119 H -8.274 c 5.075,0 7.586,3.208 8.629,5.119 C 1.399,-8.115 2.742,-4.27 0,0 Z"
             style="fill:none;stroke:#000000;stroke-width:15;stroke-linecap:round;stroke-linejoin:round;stroke-miterlimit:10;stroke-dasharray:none;stroke-opacity:1"
             id="path1193" /></g><g
           id="g1195"
           transform="translate(65.1465,93.5322)"><path
             d="m 0,0 44.119,10.457 c 21.176,5.02 43.324,4.113 64.019,-2.619 28.263,-9.194 58.949,-7.437 85.978,4.923 l 34.491,15.771"
             style="fill:none;stroke:#000000;stroke-width:15;stroke-linecap:round;stroke-linejoin:round;stroke-miterlimit:10;stroke-dasharray:none;stroke-opacity:1"
             id="path1197" /></g><g
           id="g1199"
           transform="translate(341.002,9.3032)"><path
             d="m 0,0 c 6.443,-0.883 13.019,-1.35 19.703,-1.35 79.408,0 143.779,64.372 143.779,143.779 0,62.408 -39.764,115.522 -95.336,135.405 v 31.547 l 5.968,25.245 c 1.145,4.841 -2.527,9.482 -7.501,9.482 h -93.818 c -4.975,0 -8.647,-4.641 -7.502,-9.482 l 5.969,-25.245 v -31.547 c -23.813,-8.52 -44.718,-23.145 -60.84,-41.984"
             style="fill:none;stroke:#000000;stroke-width:15;stroke-linecap:round;stroke-linejoin:round;stroke-miterlimit:10;stroke-dasharray:none;stroke-opacity:1"
             id="path1201" /></g><g
           id="g1203"
           transform="translate(241.75,351.3848)"><path
             d="m 0,0 h -105.209 c -7.87,0 -14.25,6.38 -14.25,14.25 0,7.87 6.38,14.25 14.25,14.25 H 0 C 7.87,28.5 14.25,22.12 14.25,14.25 14.25,6.38 7.87,0 0,0 Z"
             style="fill:none;stroke:#000000;stroke-width:15;stroke-linecap:round;stroke-linejoin:round;stroke-miterlimit:10;stroke-dasharray:none;stroke-opacity:1"
             id="path1205" /></g><g
           id="g1207"
           transform="translate(369.5078,38.291)"><path
             d="M 0,0 C 20.064,1.542 38.687,8.314 54.507,18.948"
             style="fill:none;stroke:#000000;stroke-width:15;stroke-linecap:round;stroke-linejoin:round;stroke-miterlimit:10;stroke-dasharray:none;stroke-opacity:1"
             id="path1209" /></g><g
           id="g1211"
           transform="translate(448.0918,78.9561)"><path
             d="m 0,0 c 16.469,19.74 26.393,45.119 26.393,72.776 0,3.168 -0.133,6.314 -0.393,9.433 -0.304,3.638 -3.589,6.286 -7.21,5.821 l -7.653,-0.983 c -15.648,-0.865 -31.431,1.999 -45.993,8.557 h -10e-4 c -26.926,12.127 -57.866,11.563 -84.332,-1.536 L -142.83,82.367"
             style="fill:none;stroke:#000000;stroke-width:15;stroke-linecap:round;stroke-linejoin:round;stroke-miterlimit:10;stroke-dasharray:none;stroke-opacity:1"
             id="path1213" /></g><g
           id="g1215"
           transform="translate(422.5625,116.8135)"><path
             d="m 0,0 c 0,-12.022 -9.746,-21.769 -21.769,-21.769 -12.022,0 -21.768,9.747 -21.768,21.769 0,12.022 9.746,21.769 21.768,21.769 C -9.746,21.769 0,12.022 0,0 Z"
             style="fill:none;stroke:#000000;stroke-width:15;stroke-linecap:round;stroke-linejoin:round;stroke-miterlimit:10;stroke-dasharray:none;stroke-opacity:1"
             id="path1217" /></g><g
           id="g1219"
           transform="translate(176.998,147.8706)"><path
             d="m 0,0 c 0,-9.018 -7.31,-16.328 -16.328,-16.328 -9.018,0 -16.328,7.31 -16.328,16.328 0,9.018 7.31,16.328 16.328,16.328 C -7.31,16.328 0,9.018 0,0 Z"
             style="fill:none;stroke:#000000;stroke-width:15;stroke-linecap:round;stroke-linejoin:round;stroke-miterlimit:10;stroke-dasharray:none;stroke-opacity:1"
             id="path1221" /></g><g
           id="g1223"
           transform="translate(212.9639,436.9307)"><path
             d="m 0,0 c 0,-13.154 -10.663,-23.818 -23.817,-23.818 -13.156,0 -23.819,10.664 -23.819,23.818 0,13.155 10.663,23.818 23.819,23.818 C -10.663,23.818 0,13.155 0,0 Z"
             style="fill:none;stroke:#000000;stroke-width:15;stroke-linecap:round;stroke-linejoin:round;stroke-miterlimit:10;stroke-dasharray:none;stroke-opacity:1"
             id="path1225" /></g><g
           id="g1227"
           transform="translate(384.7354,414.1245)"><path
             d="m 0,0 c 0,-13.155 -10.664,-23.818 -23.818,-23.818 -13.155,0 -23.818,10.663 -23.818,23.818 0,13.154 10.663,23.818 23.818,23.818 C -10.664,23.818 0,13.154 0,0 Z"
             style="fill:none;stroke:#000000;stroke-width:15;stroke-linecap:round;stroke-linejoin:round;stroke-miterlimit:10;stroke-dasharray:none;stroke-opacity:1"
             id="path1229" /></g><g
           id="g1231"
           transform="translate(144.7207,487.7964)"><path
             d="m 0,0 c 0,-8.918 -7.229,-16.147 -16.147,-16.147 -8.917,0 -16.147,7.229 -16.147,16.147 0,8.917 7.23,16.146 16.147,16.146 C -7.229,16.146 0,8.917 0,0 Z"
             style="fill:none;stroke:#000000;stroke-width:15;stroke-linecap:round;stroke-linejoin:round;stroke-miterlimit:10;stroke-dasharray:none;stroke-opacity:1"
             id="path1233" /></g></g></g></g></svg>
